<svg width="100" height="100" viewBox="0 0 100 100" fill="none" xmlns="http://www.w3.org/2000/svg">
<circle cx="50" cy="50" r="50" fill="url(#paint0_linear_0_1)"/>
<path d="M40.4034 39.6889V33.1889L38.3352 33.0966C33.3125 32.875 28.1605 31.4347 26 30.8991V35.9957C28.2344 36.8821 33.4787 38.9872 38.3722 39.4858L40.4034 39.6889ZM54.6037 36.402C54.6037 38.7656 56.5795 40.8153 59.0355 40.8338C61.4545 40.8153 63.4304 38.7656 63.4304 36.402C63.4304 33.9645 61.4545 31.9517 59.0355 31.9702C56.5795 31.9517 54.6037 33.9645 54.6037 36.402Z" fill="#00FFF0"/>
<path d="M50.3935 72.0735C59.571 72.0735 67.1974 69.6545 73.7713 64.6133V57.0976C68.8963 60.957 59.1463 63.8931 50.3935 63.8931C41.6591 63.8931 31.9091 60.957 27.0341 57.0976V64.6133C33.608 69.6545 41.2159 72.0735 50.3935 72.0735Z" fill="#00FFF0"/>
<defs>
<linearGradient id="paint0_linear_0_1" x1="100" y1="0" x2="-20.4957" y2="44.49" gradientUnits="userSpaceOnUse">
<stop stop-color="#F29682"/>
<stop offset="0.5" stop-color="#EE69AC"/>
<stop offset="1" stop-color="#CB4BCF"/>
</linearGradient>
</defs>
</svg>
